<?xml version="1.0" standalone="no"?>
<!DOCTYPE svg PUBLIC "-//W3C//DTD SVG 20010904//EN"
 "http://www.w3.org/TR/2001/REC-SVG-20010904/DTD/svg10.dtd">
<svg version="1.0" xmlns="http://www.w3.org/2000/svg"
 width="880.000000pt" height="270.000000pt" viewBox="0 0 880.000000 270.000000"
 preserveAspectRatio="xMidYMid meet">

<g transform="translate(0.000000,270.000000) scale(0.100000,-0.100000)"
fill="#000000" stroke="none">
<path d="M1470 2694 c-226 -26 -393 -86 -567 -206 -89 -61 -222 -199 -286
-296 -179 -269 -231 -612 -142 -929 33 -115 121 -292 184 -370 28 -35 46 -63
39 -63 -16 0 -68 -51 -68 -67 0 -7 -11 -13 -25 -13 -15 0 -38 -6 -53 -14 -15
-8 -129 -117 -253 -243 -239 -240 -249 -254 -234 -326 9 -41 48 -93 85 -112
39 -20 119 -19 150 1 42 28 450 437 466 467 10 18 13 40 9 58 -5 22 -3 29 8
29 8 0 29 16 46 35 l31 36 63 -44 c285 -203 663 -256 1003 -142 497 167 823
684 755 1200 -36 273 -137 482 -320 666 -165 165 -353 268 -570 314 -69 14
-261 26 -321 19z m345 -234 c329 -89 579 -345 662 -677 27 -108 24 -343 -5
-452 -90 -330 -334 -576 -668 -673 -68 -20 -102 -23 -239 -23 -137 0 -171 3
-239 23 -341 99 -585 349 -673 691 -35 137 -34 306 1 446 47 184 155 364 287
477 112 96 279 175 426 203 114 21 343 14 448 -15z"/>
<path d="M1820 2124 c-157 -42 -695 -185 -770 -204 l-35 -9 5 -333 c5 -323 6
-333 25 -337 11 -2 180 -48 375 -103 392 -109 562 -156 582 -160 11 -3 13 105
15 595 2 560 1 597 -15 596 -9 0 -91 -21 -182 -45z m80 -282 l0 -189 -197 67
c-109 37 -249 82 -310 101 -109 33 -137 48 -90 50 16 0 578 149 595 158 1 0 2
-84 2 -187z m-238 -227 c70 -22 128 -42 128 -45 0 -3 -37 -16 -82 -29 -105
-29 -548 -162 -565 -168 -10 -4 -13 37 -13 205 l0 210 203 -67 c111 -37 259
-85 329 -106z m234 -482 c-3 -4 -263 66 -531 142 l-80 23 55 16 c30 9 168 49
305 90 l250 74 3 -171 c1 -93 1 -172 -2 -174z"/>
<path d="M3080 1725 l0 -395 80 0 80 0 0 135 0 135 80 0 c164 0 252 42 304
143 55 107 34 232 -52 307 -67 60 -115 70 -319 70 l-173 0 0 -395z m333 254
c96 -26 105 -186 12 -225 -20 -8 -68 -14 -112 -14 l-78 0 3 125 3 125 67 0
c37 0 84 -5 105 -11z"/>
<path d="M4350 1725 l0 -395 75 0 75 0 0 395 0 395 -75 0 -75 0 0 -395z"/>
<path d="M5110 2055 l0 -65 115 0 116 0 -3 -330 -3 -330 80 0 80 0 -3 330 -3
330 106 0 105 0 0 65 0 65 -295 0 -295 0 0 -65z"/>
<path d="M7260 1725 l0 -395 76 0 75 0 -3 140 c-2 77 -1 140 2 140 3 0 50 -63
105 -140 l100 -140 93 0 92 0 -97 128 c-53 70 -107 140 -120 155 l-23 29 82
91 c45 51 98 109 117 130 l35 37 -95 0 -94 0 -100 -115 c-54 -63 -99 -115
-100 -115 0 0 1 101 3 225 l3 225 -75 0 -76 0 0 -395z"/>
<path d="M3880 1901 c-45 -14 -94 -43 -128 -75 -53 -49 -75 -101 -80 -187 -6
-103 15 -166 77 -229 136 -140 383 -112 486 55 28 45 30 55 30 144 0 76 -4
105 -20 136 -50 101 -159 166 -278 164 -34 0 -73 -4 -87 -8z m168 -148 c71
-53 93 -148 52 -221 -30 -54 -88 -86 -145 -80 -84 10 -135 72 -135 165 0 97
71 168 159 160 24 -3 55 -13 69 -24z"/>
<path d="M5938 1890 c-20 -11 -48 -34 -62 -52 l-26 -33 0 48 0 47 -70 0 -70 0
0 -285 0 -285 75 0 75 0 0 158 c0 133 3 163 19 199 23 50 62 73 126 73 l45 0
0 75 0 75 -37 0 c-21 -1 -54 -10 -75 -20z"/>
<path d="M6199 1883 c-40 -21 -60 -39 -77 -70 l-23 -42 50 -26 c62 -31 64 -31
81 -1 36 68 188 54 206 -20 4 -14 4 -27 1 -30 -3 -3 -59 -14 -124 -24 -134
-20 -146 -24 -190 -57 -60 -44 -68 -161 -15 -224 67 -80 231 -94 305 -25 l26
24 6 -29 c6 -28 8 -29 73 -29 l67 0 -3 212 c-4 237 -9 259 -77 316 -47 38 -96
52 -182 52 -56 0 -80 -5 -124 -27z m241 -332 c0 -70 -69 -128 -142 -118 -50 7
-78 32 -78 69 0 51 37 74 130 81 25 2 55 4 68 5 19 2 22 -3 22 -37z"/>
<path d="M6830 1892 c-65 -24 -143 -105 -165 -171 -22 -67 -17 -179 10 -236
97 -200 399 -222 503 -37 l22 40 -65 22 -66 22 -20 -26 c-64 -82 -177 -70
-226 24 -63 119 20 263 141 247 29 -4 50 -15 72 -39 l30 -34 60 25 c32 14 60
26 62 27 2 1 -3 16 -12 32 -19 37 -69 80 -121 103 -51 24 -163 24 -225 1z"/>
<path d="M7935 1886 c-52 -24 -103 -73 -132 -129 -24 -47 -29 -171 -9 -239 22
-78 89 -150 164 -178 72 -28 176 -24 237 8 39 20 123 98 114 105 -2 2 -28 17
-57 32 l-53 29 -15 -22 c-22 -32 -67 -52 -116 -52 -70 0 -118 40 -142 117 l-7
23 208 2 207 3 -2 50 c-6 115 -60 203 -154 249 -70 35 -171 36 -243 2z m179
-100 c37 -16 76 -60 76 -87 0 -18 -10 -19 -135 -19 -74 0 -135 3 -135 6 0 4
10 24 22 45 35 62 102 84 172 55z"/>
<path d="M8633 1890 c-24 -10 -51 -33 -62 -51 l-19 -32 -7 47 -7 47 -64 -3
-64 -3 -3 -283 -2 -282 72 0 71 0 4 168 c3 144 6 171 23 199 23 40 69 63 124
63 l41 0 0 75 0 75 -32 0 c-18 0 -52 -9 -75 -20z"/>
<path d="M4550 1894 c0 -7 47 -116 162 -377 l70 -158 -51 -119 c-28 -65 -51
-121 -51 -124 0 -3 35 -6 79 -6 l79 0 60 148 c141 341 255 618 259 630 4 9
-15 12 -75 12 l-79 0 -48 -127 c-27 -71 -59 -157 -71 -193 -18 -51 -24 -60
-30 -45 -4 11 -38 96 -76 189 -37 93 -68 171 -68 173 0 2 -36 3 -80 3 -44 0
-80 -3 -80 -6z"/>
<path d="M3090 745 l0 -345 210 0 210 0 0 45 0 45 -160 0 -160 0 0 300 0 300
-50 0 -50 0 0 -345z"/>
<path d="M3695 889 c-49 -19 -93 -57 -122 -107 -25 -41 -28 -57 -28 -132 0
-100 20 -147 85 -202 75 -65 172 -76 260 -30 30 15 64 41 77 58 l24 32 -37 21
-36 21 -19 -24 c-10 -13 -38 -31 -61 -41 -73 -29 -149 0 -182 69 -32 68 -36
66 167 66 l183 0 -7 69 c-14 126 -89 200 -212 207 -34 2 -75 -1 -92 -7z m146
-84 c32 -17 69 -69 69 -97 0 -16 -13 -18 -135 -18 -148 0 -149 0 -117 59 34
63 119 89 183 56z"/>
<path d="M4197 886 c-21 -8 -47 -22 -59 -33 -19 -17 -53 -73 -46 -77 11 -6 80
-36 83 -36 3 0 5 6 5 14 0 8 14 26 32 41 28 24 39 27 82 22 38 -3 55 -11 73
-31 22 -26 31 -70 16 -79 -5 -3 -51 -10 -103 -16 -115 -14 -172 -39 -194 -85
-35 -75 -9 -155 65 -194 37 -20 54 -23 107 -19 52 4 71 10 102 36 l39 31 3
-28 c3 -24 7 -27 48 -30 l45 -3 -3 168 c-3 194 -12 235 -56 279 -52 52 -156
69 -239 40z m193 -299 c0 -23 -7 -53 -16 -65 -56 -81 -204 -64 -204 23 0 44
30 65 108 75 115 15 112 16 112 -33z"/>
<path d="M4764 886 c-17 -8 -40 -25 -51 -40 -27 -34 -31 -33 -35 7 -3 30 -6
32 -45 35 l-43 3 0 -245 0 -246 50 0 50 0 0 153 c0 101 4 160 13 177 18 35 74
70 113 70 l34 0 0 50 c0 48 -1 50 -27 50 -16 -1 -42 -7 -59 -14z"/>
<path d="M5095 886 c-17 -7 -43 -27 -57 -45 l-27 -31 -3 37 c-3 37 -4 38 -45
41 l-43 3 0 -245 0 -246 50 0 50 0 0 163 c0 145 2 165 20 195 42 68 136 79
184 21 26 -30 26 -32 26 -205 l0 -174 50 0 50 0 0 163 c-1 216 -12 257 -83
311 -34 25 -129 32 -172 12z"/>
</g>
</svg>
