<?xml version="1.0" standalone="no"?>
<!DOCTYPE svg PUBLIC "-//W3C//DTD SVG 20010904//EN"
 "http://www.w3.org/TR/2001/REC-SVG-20010904/DTD/svg10.dtd">
<svg version="1.0" xmlns="http://www.w3.org/2000/svg"
 width="816.000000pt" height="198.000000pt" viewBox="0 0 816.000000 198.000000"
 preserveAspectRatio="xMidYMid meet">

<g transform="translate(0.000000,198.000000) scale(0.100000,-0.100000)"
fill="#000000" stroke="none">
<path d="M1512 1955 c-363 -125 -604 -459 -605 -840 -1 -204 67 -413 179 -552
l34 -41 -35 -35 c-19 -19 -47 -38 -62 -42 -18 -4 -95 -73 -207 -183 -158 -157
-206 -216 -206 -252 0 -6 54 -10 153 -10 l153 0 132 133 c121 123 132 137 132
170 0 25 5 37 14 37 8 0 24 12 35 26 l21 26 47 -35 c109 -79 240 -130 391
-152 174 -26 337 -1 500 75 112 53 193 112 283 208 179 190 260 438 232 709
-24 228 -119 417 -291 574 -82 74 -148 116 -264 167 l-83 37 -240 3 c-234 2
-242 2 -313 -23z m449 -131 c367 -69 622 -400 596 -772 -8 -111 -28 -187 -77
-287 -72 -148 -192 -267 -345 -340 -98 -47 -174 -66 -291 -72 -350 -19 -657
208 -761 562 -28 94 -25 297 6 395 29 94 78 188 136 262 161 205 455 306 736
252z"/>
<path d="M2030 1550 c-58 -15 -175 -46 -260 -69 -85 -22 -209 -55 -275 -73
l-120 -33 0 -264 0 -264 135 -38 c74 -20 218 -61 320 -89 224 -63 323 -89 333
-90 4 0 7 214 7 475 0 446 -1 475 -17 474 -10 -1 -65 -14 -123 -29z m50 -231
c0 -140 -1 -151 -17 -144 -10 3 -120 41 -246 82 -125 42 -226 77 -225 79 2 1
100 28 218 59 118 31 224 60 235 65 11 5 23 9 28 9 4 1 7 -67 7 -150z m-325
-138 c132 -44 233 -82 225 -85 -8 -3 -87 -26 -175 -52 -88 -25 -196 -57 -240
-70 -44 -13 -86 -24 -92 -24 -10 0 -13 39 -13 161 l0 161 28 -6 c15 -4 135
-42 267 -85z m322 -427 c-3 -3 -318 81 -446 118 l-44 13 99 30 c54 16 164 48
244 71 l145 42 3 -135 c1 -75 1 -137 -1 -139z"/>
<path d="M4093 1542 l-53 -3 0 -315 0 -314 60 0 60 0 0 314 c0 173 -3 316 -7
318 -5 2 -32 2 -60 0z"/>
<path d="M4650 1493 l0 -53 90 0 90 0 0 -265 0 -265 60 0 60 0 0 265 0 265 85
0 85 0 0 53 0 52 -235 0 -235 0 0 -52z"/>
<path d="M3020 1225 l0 -315 65 0 65 0 0 110 0 110 79 0 c88 0 131 11 180 48
90 67 95 229 9 309 -47 44 -88 53 -248 53 l-150 0 0 -315z m275 201 c18 -8 38
-23 44 -34 19 -35 13 -89 -13 -119 -21 -25 -31 -28 -100 -31 l-76 -4 0 101 0
101 55 0 c31 0 71 -6 90 -14z"/>
<path d="M6370 1225 l0 -315 58 0 57 0 -1 115 c0 64 2 112 6 108 4 -4 42 -56
84 -115 l77 -108 75 0 74 0 -96 125 -95 125 83 95 c46 53 85 100 86 105 2 6
-25 10 -65 10 l-68 0 -64 -75 c-111 -130 -102 -136 -99 68 l3 177 -57 0 -58 0
0 -315z"/>
<path d="M3680 1371 c-53 -11 -94 -36 -133 -81 -83 -98 -67 -259 33 -338 43
-33 125 -55 181 -49 243 29 298 341 80 451 -34 17 -116 26 -161 17z m109 -115
c116 -60 74 -246 -56 -246 -38 0 -50 5 -78 33 -104 104 7 278 134 213z"/>
<path d="M5560 1371 c-47 -10 -88 -38 -106 -73 -18 -34 -17 -36 34 -58 37 -17
37 -16 64 12 18 20 36 28 60 28 42 0 98 -34 98 -59 0 -20 -35 -31 -155 -46
-69 -9 -121 -45 -134 -93 -26 -94 50 -182 155 -182 41 0 104 24 121 47 10 13
13 12 19 -11 6 -24 10 -26 60 -26 l54 0 -4 168 c-3 92 -9 178 -14 192 -11 27
-55 71 -88 89 -29 14 -121 22 -164 12z m150 -285 c0 -70 -93 -120 -148 -79
-57 42 -27 93 61 104 91 11 87 12 87 -25z"/>
<path d="M6060 1371 c-53 -11 -95 -37 -129 -78 -70 -84 -70 -222 0 -306 102
-123 287 -111 373 25 l18 27 -53 15 -52 16 -34 -30 c-58 -52 -140 -34 -169 37
-54 128 71 250 168 164 l34 -29 47 20 c26 11 47 24 47 29 0 16 -54 71 -89 88
-44 23 -113 32 -161 22z"/>
<path d="M6945 1371 c-46 -12 -68 -26 -108 -70 -43 -48 -61 -107 -54 -182 11
-124 89 -203 211 -216 63 -7 137 22 185 71 l32 33 -45 24 -45 23 -25 -23 c-17
-16 -41 -25 -74 -29 -41 -3 -52 0 -79 22 -17 14 -36 40 -42 56 l-10 30 163 0
c89 0 165 2 168 5 2 3 1 33 -4 68 -10 75 -46 132 -103 164 -45 24 -125 36
-170 24z m113 -101 c31 -19 61 -64 50 -75 -3 -3 -54 -4 -112 -3 l-107 3 23 35
c41 61 90 74 146 40z"/>
<path d="M4205 1348 c4 -13 45 -109 91 -214 46 -106 84 -197 84 -202 0 -6 -18
-52 -39 -102 l-40 -91 66 3 67 3 36 90 c133 324 191 465 204 498 l16 37 -64 0
-63 0 -53 -142 c-29 -79 -56 -146 -59 -150 -4 -4 -24 36 -45 90 -21 53 -49
121 -62 150 l-23 52 -61 0 c-59 0 -61 -1 -55 -22z"/>
<path d="M5130 1141 l0 -231 60 0 60 0 0 140 c0 139 0 140 28 171 24 27 36 32
75 33 l47 1 0 58 0 57 -36 0 c-40 0 -98 -30 -110 -58 -6 -13 -9 -9 -13 18 -6
34 -7 35 -58 38 l-53 3 0 -230z"/>
<path d="M7287 1363 c-4 -3 -7 -107 -7 -230 l0 -223 60 0 60 0 0 125 c0 177
20 216 112 219 l38 1 0 57 0 58 -41 0 c-33 0 -47 -6 -75 -34 -34 -34 -44 -31
-44 15 0 16 -7 19 -48 19 -27 0 -52 -3 -55 -7z"/>
<path d="M3030 445 l0 -275 168 0 168 0 -4 35 -4 35 -124 0 -124 0 0 240 0
240 -40 0 -40 0 0 -275z"/>
<path d="M3505 552 c-99 -47 -139 -153 -100 -263 9 -24 26 -54 38 -68 50 -54
152 -76 220 -47 30 13 95 72 86 79 -2 2 -16 11 -31 20 -26 16 -28 16 -38 -2
-5 -11 -29 -27 -53 -36 -40 -15 -47 -15 -80 -1 -34 14 -77 66 -77 94 0 9 36
12 145 12 l145 0 0 43 c-1 133 -139 224 -255 169z m135 -65 c22 -17 50 -59 50
-74 0 -10 -28 -13 -111 -13 -110 0 -110 0 -104 23 4 12 20 34 36 50 23 21 39
27 72 27 23 0 49 -6 57 -13z"/>
<path d="M3929 560 c-40 -12 -75 -38 -87 -65 -10 -22 -9 -26 19 -40 29 -15 30
-15 55 15 22 25 33 30 70 30 51 0 84 -25 84 -64 0 -22 -5 -25 -57 -31 -147
-17 -195 -47 -197 -123 -1 -71 57 -122 140 -122 38 0 104 26 104 41 0 5 5 9
10 9 6 0 10 -9 10 -20 0 -16 7 -20 38 -20 l37 0 -5 153 c-4 126 -8 158 -23
181 -34 51 -127 78 -198 56z m141 -241 c0 -41 -15 -66 -50 -84 -42 -22 -77
-19 -105 10 -45 44 -23 85 51 96 99 13 104 12 104 -22z"/>
<path d="M4375 558 c-11 -6 -32 -22 -47 -36 l-28 -26 0 32 c0 30 -2 32 -35 32
l-35 0 0 -195 0 -195 39 0 39 0 4 129 c3 121 5 131 27 155 15 16 41 29 63 32
36 6 38 8 38 45 0 34 -3 39 -22 39 -13 0 -32 -6 -43 -12z"/>
<path d="M4634 556 c-17 -8 -38 -24 -47 -36 l-15 -22 -4 28 c-3 26 -7 29 -38
29 l-35 0 -3 -192 -2 -193 39 0 39 0 4 136 3 136 33 29 c20 18 43 29 61 29 77
0 91 -30 91 -200 l0 -130 41 0 41 0 -4 147 c-4 160 -14 197 -63 229 -34 22
-103 27 -141 10z"/>
</g>
</svg>
